HIERARCHY
ROOT Joint0
{
  OFFSET 0.0000 0.0000 1.0000
  CHANNELS 6 Xposition Yposition Zposition Zrotation Xrotation Yrotation
  JOINT Joint1
  {
    OFFSET 0.0811 -0.0899 -0.0114
    CHANNELS 3 Zrotation Xrotation Yrotation
    JOINT Joint4
    {
      OFFSET 0.0297 -0.3677 -0.0039
      CHANNELS 3 Zrotation Xrotation Yrotation
      JOINT Joint7
      {
        OFFSET -0.0120 -0.3841 -0.0490
        CHANNELS 3 Zrotation Xrotation Yrotation
        JOINT Joint10
        {
          OFFSET 0.0247 -0.0555 0.1226
          CHANNELS 3 Zrotation Xrotation Yrotation
          End Site
          {
            OFFSET 0.0247 -0.0555 0.1226
          }
        }
      }
    }
  }
  JOINT Joint2
  {
    OFFSET -0.0773 -0.0878 -0.0084
    CHANNELS 3 Zrotation Xrotation Yrotation
    JOINT Joint5
    {
      OFFSET -0.0344 -0.3716 -0.0062
      CHANNELS 3 Zrotation Xrotation Yrotation
      JOINT Joint8
      {
        OFFSET 0.0139 -0.3835 -0.0484
        CHANNELS 3 Zrotation Xrotation Yrotation
        JOINT Joint11
        {
          OFFSET -0.0293 -0.0469 0.1263
          CHANNELS 3 Zrotation Xrotation Yrotation
          End Site
          {
            OFFSET -0.0293 -0.0469 0.1263
          }
        }
      }
    }
  }
  JOINT Joint3
  {
    OFFSET -0.0027 0.1037 -0.0232
    CHANNELS 3 Zrotation Xrotation Yrotation
    JOINT Joint6
    {
      OFFSET 0.0030 0.1296 -0.0027
      CHANNELS 3 Zrotation Xrotation Yrotation
      JOINT Joint9
      {
        OFFSET 0.0015 0.0533 0.0332
        CHANNELS 3 Zrotation Xrotation Yrotation
        JOINT Joint12
        {
          OFFSET -0.0004 0.2283 -0.0600
          CHANNELS 3 Zrotation Xrotation Yrotation
          JOINT Joint15
          {
            OFFSET 0.0048 0.0641 0.0558
            CHANNELS 3 Zrotation Xrotation Yrotation
            End Site
            {
              OFFSET 0.0048 0.0641 0.0558
            }
          }
        }
        JOINT Joint13
        {
          OFFSET 0.0787 0.1275 -0.0430
          CHANNELS 3 Zrotation Xrotation Yrotation
          JOINT Joint16
          {
            OFFSET 0.0914 0.0355 -0.0086
            CHANNELS 3 Zrotation Xrotation Yrotation
            JOINT Joint18
            {
              OFFSET 0.2512 -0.0141 -0.0294
              CHANNELS 3 Zrotation Xrotation Yrotation
              JOINT Joint20
              {
                OFFSET 0.2431 0.0092 0.0027
                CHANNELS 3 Zrotation Xrotation Yrotation
                JOINT Joint22
                {
                  OFFSET 0.1053 -0.0108 0.0234
                  CHANNELS 3 Zrotation Xrotation Yrotation
                  JOINT Joint23
                  {
                    OFFSET 0.0332 0.0042 0.0030
                    CHANNELS 3 Zrotation Xrotation Yrotation
                    JOINT Joint24
                    {
                      OFFSET 0.0234 -0.0009 0.0005
                      CHANNELS 3 Zrotation Xrotation Yrotation
                      End Site
                      {
                        OFFSET 0.0234 -0.0009 0.0005
                      }
                    }
                  }
                }
                JOINT Joint25
                {
                  OFFSET 0.1126 -0.0078 -0.0002
                  CHANNELS 3 Zrotation Xrotation Yrotation
                  JOINT Joint26
                  {
                    OFFSET 0.0317 0.0021 -0.0047
                    CHANNELS 3 Zrotation Xrotation Yrotation
                    JOINT Joint27
                    {
                      OFFSET 0.0246 -0.0008 -0.0039
                      CHANNELS 3 Zrotation Xrotation Yrotation
                      End Site
                      {
                        OFFSET 0.0246 -0.0008 -0.0039
                      }
                    }
                  }
                }
                JOINT Joint28
                {
                  OFFSET 0.0860 -0.0168 -0.0403
                  CHANNELS 3 Zrotation Xrotation Yrotation
                  JOINT Joint29
                  {
                    OFFSET 0.0158 -0.0006 -0.0114
                    CHANNELS 3 Zrotation Xrotation Yrotation
                    JOINT Joint30
                    {
                      OFFSET 0.0161 -0.0011 -0.0109
                      CHANNELS 3 Zrotation Xrotation Yrotation
                      End Site
                      {
                        OFFSET 0.0161 -0.0011 -0.0109
                      }
                    }
                  }
                }
                JOINT Joint31
                {
                  OFFSET 0.0999 -0.0111 -0.0238
                  CHANNELS 3 Zrotation Xrotation Yrotation
                  JOINT Joint32
                  {
                    OFFSET 0.0286 0.0023 -0.0053
                    CHANNELS 3 Zrotation Xrotation Yrotation
                    JOINT Joint33
                    {
                      OFFSET 0.0234 -0.0009 -0.0074
                      CHANNELS 3 Zrotation Xrotation Yrotation
                      End Site
                      {
                        OFFSET 0.0234 -0.0009 -0.0074
                      }
                    }
                  }
                }
                JOINT Joint34
                {
                  OFFSET 0.0426 -0.0219 0.0277
                  CHANNELS 3 Zrotation Xrotation Yrotation
                  JOINT Joint35
                  {
                    OFFSET 0.0185 0.0008 0.0246
                    CHANNELS 3 Zrotation Xrotation Yrotation
                    JOINT Joint36
                    {
                      OFFSET 0.0221 -0.0048 0.0152
                      CHANNELS 3 Zrotation Xrotation Yrotation
                      End Site
                      {
                        OFFSET 0.0221 -0.0048 0.0152
                      }
                    }
                  }
                }
              }
            }
          }
        }
        JOINT Joint14
        {
          OFFSET -0.0815 0.1251 -0.0492
          CHANNELS 3 Zrotation Xrotation Yrotation
          JOINT Joint17
          {
            OFFSET -0.0975 0.0385 -0.0099
            CHANNELS 3 Zrotation Xrotation Yrotation
            JOINT Joint19
            {
              OFFSET -0.2546 -0.0159 -0.0229
              CHANNELS 3 Zrotation Xrotation Yrotation
              JOINT Joint21
              {
                OFFSET -0.2519 0.0079 0.0007
                CHANNELS 3 Zrotation Xrotation Yrotation
                JOINT Joint37
                {
                  OFFSET -0.1043 -0.0103 0.0246
                  CHANNELS 3 Zrotation Xrotation Yrotation
                  JOINT Joint38
                  {
                    OFFSET -0.0341 0.0034 0.0025
                    CHANNELS 3 Zrotation Xrotation Yrotation
                    JOINT Joint39
                    {
                      OFFSET -0.0236 -0.0015 -0.0003
                      CHANNELS 3 Zrotation Xrotation Yrotation
                      End Site
                      {
                        OFFSET -0.0236 -0.0015 -0.0003
                      }
                    }
                  }
                }
                JOINT Joint40
                {
                  OFFSET -0.1123 -0.0074 -0.0003
                  CHANNELS 3 Zrotation Xrotation Yrotation
                  JOINT Joint41
                  {
                    OFFSET -0.0322 0.0016 -0.0048
                    CHANNELS 3 Zrotation Xrotation Yrotation
                    JOINT Joint42
                    {
                      OFFSET -0.0245 -0.0012 -0.0045
                      CHANNELS 3 Zrotation Xrotation Yrotation
                      End Site
                      {
                        OFFSET -0.0245 -0.0012 -0.0045
                      }
                    }
                  }
                }
                JOINT Joint43
                {
                  OFFSET -0.0863 -0.0161 -0.0419
                  CHANNELS 3 Zrotation Xrotation Yrotation
                  JOINT Joint44
                  {
                    OFFSET -0.0162 -0.0001 -0.0120
                    CHANNELS 3 Zrotation Xrotation Yrotation
                    JOINT Joint45
                    {
                      OFFSET -0.0165 -0.0007 -0.0110
                      CHANNELS 3 Zrotation Xrotation Yrotation
                      End Site
                      {
                        OFFSET -0.0165 -0.0007 -0.0110
                      }
                    }
                  }
                }
                JOINT Joint46
                {
                  OFFSET -0.0999 -0.0107 -0.0248
                  CHANNELS 3 Zrotation Xrotation Yrotation
                  JOINT Joint47
                  {
                    OFFSET -0.0290 0.0016 -0.0050
                    CHANNELS 3 Zrotation Xrotation Yrotation
                    JOINT Joint48
                    {
                      OFFSET -0.0236 -0.0012 -0.0076
                      CHANNELS 3 Zrotation Xrotation Yrotation
                      End Site
                      {
                        OFFSET -0.0236 -0.0012 -0.0076
                      }
                    }
                  }
                }
                JOINT Joint49
                {
                  OFFSET -0.0397 -0.0214 0.0306
                  CHANNELS 3 Zrotation Xrotation Yrotation
                  JOINT Joint50
                  {
                    OFFSET -0.0191 0.0007 0.0247
                    CHANNELS 3 Zrotation Xrotation Yrotation
                    JOINT Joint51
                    {
                      OFFSET -0.0231 -0.0056 0.0141
                      CHANNELS 3 Zrotation Xrotation Yrotation
                      End Site
                      {
                        OFFSET -0.0231 -0.0056 0.0141
                      }
                    }
                  }
                }
              }
            }
          }
        }
      }
    }
  }
}
MOTION
Frames: 9
Frame Time: 0.0333
0.0000 0.0000 0.0000 -174.7939 78.2168 -3.7754 11.7046 12.8190 26.3339 8.2726 -6.7425 -14.8424 10.7217 -3.8581 44.5102 -0.2454 0.1138 0.3094 -12.9380 -15.7654 -2.9342 5.4216 16.4038 -2.9371 21.6040 -33.5851 -3.6788 0.2501 -0.3294 0.1018 -12.7413 -15.1033 24.8350 37.5839 -28.7305 17.4506 -20.2711 29.3459 23.8453 -7.6719 26.2750 2.8982 2.5328 -14.0332 -23.1647 -12.4523 10.5333 -25.0085 -19.0955 -34.9619 -71.4363 -7.3683 -10.7809 14.0876 104.5078 27.0798 -52.5377 -23.6118 5.7065 3.2376 -43.0396 7.2887 -0.9150 -11.3523 -4.7349 -5.9057 -30.2339 -7.6930 0.8643 -40.5986 -8.2767 -0.2234 -19.7771 -0.5570 -5.1688 -40.3277 -20.7897 -19.3139 -29.7895 -11.0167 -6.6413 -5.5962 -21.2837 -4.5849 -36.8152 -5.7085 -6.6594 -37.1280 -15.0494 -8.5406 -22.8453 -8.2676 -9.4380 -16.8095 46.7403 24.2387 3.4895 -28.3311 2.0780 -17.7087 30.0107 8.0216 -19.8216 -23.9888 58.5606 18.3487 -8.7854 7.4177 -50.6610 9.6993 35.1603 -85.7226 26.8516 39.2311 24.6581 5.3046 -4.0782 42.7238 7.3832 0.5299 10.8353 -5.2619 5.7527 30.1549 -7.0158 -0.8298 40.3524 -8.4886 0.2774 19.5893 -0.1381 5.5974 39.6020 -20.6103 19.4308 29.8811 -10.8943 6.6668 5.2503 -21.1065 4.4923 35.9230 -6.3689 7.2642 38.2198 -15.0117 8.3865 22.0383 -8.4205 9.0223 15.7267 47.0315 -23.5275 -4.2098 -28.9783 -2.1885 18.5260 29.1798 -8.0050
0.0000 0.0000 0.0000 -175.3818 78.1799 -3.1811 11.8564 12.6466 26.1436 8.0881 -6.6094 -14.9552 10.7416 -3.8501 44.5475 -0.1992 0.1147 0.2424 -13.2768 -16.0279 -2.9478 5.5069 16.3406 -3.0876 21.6207 -33.8800 -3.8599 0.2856 -0.3121 0.0487 -12.7814 -15.3675 25.1611 37.2670 -28.3894 17.3058 -20.4733 29.2939 24.0244 -7.5581 26.1170 2.9057 2.3921 -14.0975 -23.1141 -12.7006 10.4809 -25.1037 -18.6730 -35.5016 -71.4451 -7.5254 -11.1514 14.0671 104.8048 26.9811 -52.5344 -23.6912 5.6157 3.3120 -42.9836 7.2939 -0.9065 -11.4331 -4.7622 -5.9109 -30.2482 -7.7364 0.9324 -40.5843 -8.3075 -0.1613 -19.7327 -0.5270 -5.1279 -40.3969 -20.7436 -19.3748 -29.7464 -10.9708 -6.7088 -5.5801 -21.3087 -4.7076 -36.7548 -5.7146 -6.6073 -37.2197 -15.0558 -8.7125 -22.7064 -8.1641 -9.4703 -16.7202 46.8339 24.1991 3.5830 -28.1934 2.0178 -17.9268 29.9554 8.1210 -19.8080 -23.9534 58.5312 18.2001 -8.8280 7.6318 -50.5921 9.6321 35.2188 -86.0370 26.8807 39.5333 24.6569 5.3015 -4.1219 42.7957 7.3341 0.4883 10.7404 -5.2556 5.6497 30.0786 -6.9627 -0.9242 40.3118 -8.5091 0.2280 19.5182 -0.2434 5.5815 39.6164 -20.6339 19.4775 29.8804 -10.8786 6.6462 5.2027 -21.0650 4.3835 35.8508 -6.3400 7.2387 38.0738 -14.9981 8.3072 21.9564 -8.5128 9.0587 15.6020 47.0780 -23.5061 -4.1224 -28.9585 -2.0336 18.5652 29.1147 -8.0788
0.0000 0.0000 0.0000 -175.1970 78.2891 -3.1268 11.9308 12.5604 25.9387 8.2324 -6.6031 -15.2687 10.8105 -3.7587 44.6401 -0.2083 0.0498 0.2086 -13.5203 -16.3007 -2.9267 5.5603 16.3480 -3.1761 21.9254 -34.2701 -3.6453 0.2528 -0.2994 0.0506 -12.9956 -15.9535 25.7409 37.2859 -28.1871 17.3786 -20.8108 29.2616 24.3538 -7.6383 26.3032 3.0165 2.3331 -14.3379 -23.4458 -12.6374 10.4567 -25.3555 -18.2616 -35.8317 -71.5789 -7.6751 -11.4174 14.2312 105.2951 26.6264 -52.6401 -23.6701 5.6065 3.3741 -42.9397 7.2924 -0.9233 -11.4433 -4.7941 -5.8729 -30.2030 -7.7518 1.0250 -40.5612 -8.3411 -0.1653 -19.6780 -0.4657 -5.1213 -40.4145 -20.7505 -19.4047 -29.8175 -10.9418 -6.7470 -5.5577 -21.1992 -4.7727 -36.7167 -5.7356 -6.5563 -37.3706 -15.0237 -8.8185 -22.6071 -8.1324 -9.4477 -16.6321 46.7747 24.1798 3.5473 -28.0513 1.8769 -17.9471 29.9313 8.1677 -20.0018 -24.0095 58.4757 18.1180 -8.6317 7.7888 -51.0122 9.9085 35.2909 -86.6734 26.7863 40.0463 24.5938 5.3287 -4.1521 42.8751 7.3404 0.5322 10.7075 -5.2212 5.6008 30.1809 -6.8945 -1.0141 40.2685 -8.5277 0.2789 19.5605 -0.3170 5.6204 39.6078 -20.6694 19.5140 29.8871 -10.9194 6.6089 5.2253 -21.0650 4.4374 35.8710 -6.2796 7.2855 38.0367 -14.9883 8.3278 21.9614 -8.5263 9.1083 15.5542 47.0245 -23.4709 -4.0034 -28.9719 -1.9459 18.6598 29.0675 -8.2266
0.0000 0.0000 0.0000 -174.7588 78.4658 -3.2356 11.9726 12.5340 25.8170 8.4880 -6.7972 -15.5197 10.8971 -3.6577 44.8803 -0.2772 -0.0013 0.1970 -13.7638 -16.5415 -2.9604 5.5543 16.3192 -3.1527 22.2238 -34.5942 -3.3660 0.2032 -0.2987 0.0405 -13.2173 -16.5330 26.5132 37.5671 -28.0939 17.5719 -21.1926 29.2365 24.7024 -7.8854 26.7346 3.1572 2.3005 -14.7524 -23.9919 -12.3594 10.5234 -25.6249 -18.0574 -35.8458 -71.7373 -7.7036 -11.5427 14.3921 105.7101 26.2291 -52.8047 -23.6357 5.6574 3.3803 -42.9271 7.2808 -0.9431 -11.4070 -4.8177 -5.7994 -30.1343 -7.7267 1.0793 -40.5156 -8.4023 -0.1698 -19.6743 -0.4576 -5.0965 -40.3934 -20.7809 -19.3766 -29.8978 -10.9788 -6.7705 -5.5436 -21.0299 -4.7492 -36.7234 -5.7799 -6.5147 -37.4555 -14.9929 -8.8530 -22.6416 -8.1815 -9.4416 -16.6068 46.6636 24.1738 3.5165 -27.9880 1.8110 -17.8381 29.9739 8.1773 -20.1845 -24.0392 58.4717 18.0109 -8.2669 7.8001 -51.6505 10.3449 35.3426 -87.5117 26.5470 40.6094 24.4826 5.3572 -4.1684 42.9748 7.3529 0.6071 10.7310 -5.2128 5.6042 30.3612 -6.8780 -1.0355 40.1855 -8.5310 0.2567 19.6093 -0.3066 5.6303 39.6290 -20.6585 19.5149 29.8831 -10.9349 6.6111 5.2305 -21.1000 4.5508 35.9334 -6.2617 7.2943 38.0732 -14.9858 8.4151 21.9732 -8.5372 9.1637 15.6075 46.9278 -23.5557 -3.9553 -28.9824 -1.9427 18.7470 29.0722 -8.3169
0.0000 0.0000 0.0000 -174.5489 78.5758 -3.2045 12.0261 12.5183 25.7642 8.6380 -6.9862 -15.6047 11.0113 -3.6200 45.1447 -0.3143 -0.0346 0.1986 -14.1140 -16.7060 -3.0703 5.4857 16.2551 -3.0078 22.3244 -34.7681 -3.3242 0.1365 -0.2926 0.0464 -13.3101 -16.9194 27.2601 37.9220 -27.9653 17.7849 -21.5671 29.2168 25.0308 -8.1144 27.1376 3.2050 2.2665 -15.2184 -24.3782 -12.0857 10.5572 -25.7958 -18.1474 -35.6536 -71.8099 -7.6536 -11.6425 14.4716 106.0113 25.9030 -53.0333 -23.6353 5.7001 3.3466 -42.9704 7.3095 -0.9783 -11.3871 -4.8445 -5.7456 -30.1227 -7.6889 1.0889 -40.4489 -8.4615 -0.1788 -19.6725 -0.4927 -5.0730 -40.3519 -20.7878 -19.3234 -29.9182 -11.0325 -6.7500 -5.5118 -20.9136 -4.7011 -36.7093 -5.8260 -6.4868 -37.4789 -14.9504 -8.8710 -22.7710 -8.2464 -9.4812 -16.7147 46.6551 24.2761 3.4888 -28.0129 1.8520 -17.6949 30.0931 8.1745 -20.2184 -23.9641 58.4819 17.7529 -7.9272 7.6332 -52.0749 10.6509 35.4178 -88.1773 26.2789 40.9636 24.3891 5.3396 -4.1910 43.0246 7.3485 0.6407 10.7554 -5.2233 5.6024 30.4727 -6.9263 -1.0208 40.1217 -8.5566 0.2275 19.6302 -0.2778 5.6369 39.6629 -20.6389 19.5620 29.8701 -10.8768 6.6200 5.1880 -21.1086 4.5993 35.9779 -6.3372 7.2585 38.1139 -14.9965 8.4798 22.0199 -8.4946 9.1788 15.7048 46.8642 -23.7246 -3.9634 -28.9550 -1.9741 18.7490 29.1383 -8.3505
0.0000 0.0000 0.0000 -174.6980 78.5781 -2.9966 12.0903 12.4958 25.6870 8.6080 -7.0974 -15.5900 11.1251 -3.6306 45.3043 -0.3248 -0.0360 0.2162 -14.5895 -16.8799 -3.2073 5.4038 16.1962 -2.8373 22.2643 -34.8590 -3.5809 0.1266 -0.2919 0.0460 -13.2487 -17.0916 27.7747 38.3114 -27.6922 17.9976 -21.9367 29.2142 25.3127 -8.2072 27.4060 3.1487 2.2381 -15.6373 -24.5266 -11.9863 10.5191 -25.8925 -18.3382 -35.4905 -71.7338 -7.6223 -11.8723 14.4209 106.3052 25.6923 -53.2811 -23.6747 5.7275 3.3013 -42.9641 7.3566 -1.0259 -11.3716 -4.8364 -5.7392 -30.1606 -7.6519 1.0774 -40.4074 -8.5034 -0.1814 -19.6362 -0.5424 -5.1045 -40.3473 -20.7724 -19.2800 -29.8825 -11.0338 -6.7279 -5.5157 -20.8851 -4.6530 -36.6730 -5.8521 -6.4736 -37.4742 -14.9471 -8.8841 -22.8387 -8.2800 -9.4488 -16.8183 46.6979 24.3877 3.4805 -28.0425 1.9221 -17.6655 30.2154 8.1876 -20.1116 -23.8173 58.5096 17.3837 -7.7678 7.3788 -52.1161 10.6982 35.5680 -88.4456 26.1107 41.0185 24.3751 5.3104 -4.1955 43.0022 7.3013 0.6353 10.7270 -5.2581 5.5964 30.4745 -6.9841 -1.0048 40.1517 -8.5988 0.2003 19.6248 -0.2645 5.6131 39.6990 -20.6341 19.6375 29.8831 -10.7939 6.6500 5.1376 -21.0759 4.5791 35.9619 -6.5034 7.2134 38.1114 -14.9901 8.4909 22.0578 -8.5006 9.1536 15.7743 46.8355 -23.8490 -4.0097 -28.8830 -1.9978 18.6810 29.2531 -8.3356
0.0000 0.0000 0.0000 -174.9716 78.5014 -2.8080 12.1493 12.5047 25.5983 8.4760 -7.1437 -15.5659 11.2087 -3.6338 45.3535 -0.3383 -0.0307 0.2417 -15.1301 -17.0363 -3.3103 5.4096 16.1996 -2.8039 22.1550 -34.9544 -3.9806 0.1410 -0.2859 0.0219 -13.1012 -17.1034 28.0804 38.7740 -27.3130 18.2164 -22.3107 29.2299 25.5845 -8.2087 27.5926 3.0778 2.2087 -15.9766 -24.5737 -12.0124 10.4478 -26.0056 -18.4113 -35.5496 -71.5940 -7.6713 -12.2601 14.2852 106.6290 25.6344 -53.4965 -23.7044 5.7274 3.2905 -42.9697 7.4073 -1.0600 -11.3287 -4.8468 -5.7079 -30.2147 -7.6301 1.0678 -40.4228 -8.5391 -0.1762 -19.5571 -0.4714 -5.1246 -40.3653 -20.7551 -19.2672 -29.8380 -11.0223 -6.7084 -5.5167 -20.9201 -4.6118 -36.6619 -5.8815 -6.4844 -37.4299 -14.9665 -8.8981 -22.8106 -8.2950 -9.4499 -16.8790 46.7665 24.4391 3.5206 -28.0509 1.9473 -17.7331 30.3216 8.2238 -19.9152 -23.6014 58.5806 16.9441 -7.7388 7.2386 -51.9256 10.6157 35.7335 -88.3803 26.0934 40.9051 24.4232 5.2659 -4.1954 42.9788 7.2642 0.6030 10.6795 -5.2770 5.5871 30.4135 -7.0072 -0.9935 40.2344 -8.6292 0.1937 19.6132 -0.2451 5.6040 39.7343 -20.6590 19.6919 29.8850 -10.7924 6.6602 5.0840 -21.0555 4.4839 35.9817 -6.5436 7.2290 38.0454 -14.9525 8.4370 22.1175 -8.5580 9.1076 15.7952 46.7822 -23.8867 -4.0585 -28.8189 -2.0192 18.5766 29.3583 -8.2786
0.0000 0.0000 0.0000 -175.1364 78.4525 -2.7200 12.2007 12.5612 25.5719 8.3845 -7.1007 -15.5910 11.2400 -3.5920 45.3386 -0.3209 -0.0296 0.2450 -15.5770 -17.1228 -3.3643 5.5303 16.2754 -2.9354 22.0855 -35.1056 -4.3192 0.1808 -0.2518 -0.0025 -12.9784 -17.0769 28.2477 39.3937 -26.9470 18.4881 -22.6445 29.2318 25.8440 -8.1678 27.7041 3.0371 2.1604 -16.2238 -24.6615 -11.9894 10.3841 -26.3064 -18.3800 -35.7679 -71.4533 -7.7783 -12.7093 14.1144 106.9224 25.6509 -53.6362 -23.7445 5.7124 3.3071 -42.9335 7.4045 -1.0603 -11.3095 -4.8519 -5.6858 -30.2378 -7.6182 1.0642 -40.4640 -8.5587 -0.1723 -19.5230 -0.3825 -5.1561 -40.4161 -20.7515 -19.2850 -29.8384 -10.9886 -6.7125 -5.5067 -20.9241 -4.6055 -36.6683 -5.8712 -6.5211 -37.3729 -14.9630 -8.8995 -22.7427 -8.2673 -9.4426 -16.9356 46.8003 24.4712 3.5665 -28.0670 1.9326 -17.8308 30.3530 8.2622 -19.7475 -23.3160 58.6274 16.5401 -7.7150 7.2639 -51.6839 10.5064 35.9010 -88.1608 26.1895 40.7989 24.4783 5.2874 -4.2008 42.9858 7.2405 0.5773 10.6463 -5.2226 5.5806 30.3558 -6.9814 -0.9968 40.3117 -8.6333 0.1680 19.6587 -0.2509 5.6056 39.7876 -20.6746 19.7326 29.8918 -10.8495 6.6593 5.0840 -21.0291 4.3985 35.9591 -6.5434 7.2770 37.9601 -14.9300 8.3819 22.1003 -8.6096 9.0663 15.7687 46.7500 -23.8394 -4.0348 -28.8066 -1.9776 18.5101 29.3699 -8.2050
0.0000 0.0000 0.0000 -175.1298 78.5065 -2.6415 12.2235 12.6829 25.6194 8.4743 -7.0260 -15.6609 11.2781 -3.4430 45.4177 -0.3037 -0.0356 0.2112 -15.8407 -17.1272 -3.3991 5.7438 16.4629 -3.1207 22.0767 -35.3287 -4.5057 0.1878 -0.2153 0.0452 -12.9565 -17.0674 28.4137 40.0913 -26.6584 18.7809 -22.8902 29.1970 26.0552 -8.1621 27.7825 3.0605 2.0861 -16.4675 -24.8958 -11.7938 10.3350 -26.7274 -18.2970 -35.9916 -71.3071 -7.8808 -13.1055 13.9888 107.0816 25.7049 -53.6827 -23.7716 5.6861 3.3034 -42.8866 7.3775 -0.9854 -11.2944 -4.8835 -5.6665 -30.2189 -7.6275 1.0870 -40.5402 -8.5367 -0.1995 -19.5030 -0.3079 -5.1845 -40.4361 -20.7618 -19.3191 -29.8570 -10.9607 -6.7302 -5.4881 -20.9006 -4.6318 -36.6941 -5.8415 -6.5737 -37.3291 -14.9475 -8.8896 -22.7478 -8.2439 -9.3651 -16.9543 46.7695 24.5035 3.5269 -28.1506 1.8492 -17.8778 30.3067 8.2762 -19.7119 -23.0673 58.6429 16.1772 -7.5924 7.3541 -51.5975 10.5071 36.0663 -88.0667 26.2306 40.8383 24.4994 5.3651 -4.2031 43.0225 7.2627 0.5794 10.6064 -5.1769 5.5902 30.3376 -6.9269 -1.0277 40.2999 -8.6167 0.1685 19.7285 -0.2676 5.5910 39.8449 -20.6521 19.7764 29.8958 -10.8895 6.6370 5.1083 -21.0434 4.3891 35.9457 -6.5397 7.3243 37.8865 -14.9256 8.3530 22.0476 -8.5896 9.0194 15.7343 46.6986 -23.7803 -3.9933 -28.8230 -1.9087 18.4837 29.2784 -8.1488
